<?xml version="1.0" standalone="no"?>
<!DOCTYPE svg PUBLIC "-//W3C//DTD SVG 20010904//EN"
 "http://www.w3.org/TR/2001/REC-SVG-20010904/DTD/svg10.dtd">
<svg version="1.0" xmlns="http://www.w3.org/2000/svg"
 width="359.000000pt" height="352.000000pt" viewBox="0 0 359.000000 352.000000"
 preserveAspectRatio="xMidYMid meet">
<metadata>
Created by potrace 1.16, written by Peter Selinger 2001-2019
</metadata>
<g transform="translate(0.000000,352.000000) scale(0.100000,-0.100000)"
fill="#000000" stroke="none">
<path d="M1490 3226 c-161 -21 -370 -81 -502 -146 -38 -18 -68 -37 -68 -42 0
-4 -6 -8 -13 -8 -6 0 -35 -20 -62 -46 -28 -25 -83 -70 -123 -101 -40 -30 -85
-72 -100 -92 -15 -20 -29 -38 -33 -41 -3 -3 -8 -13 -12 -23 -4 -11 -12 -15
-19 -11 -8 5 -9 2 -5 -9 4 -10 2 -16 -6 -14 -7 1 -11 -6 -11 -15 1 -10 -2 -16
-6 -13 -4 2 -20 -19 -36 -48 -26 -48 -28 -61 -29 -163 -1 -105 -3 -116 -39
-202 -21 -50 -42 -90 -46 -87 -14 9 -79 -151 -110 -270 -44 -170 -50 -309 -20
-470 30 -161 45 -215 92 -315 22 -47 44 -94 48 -105 79 -195 179 -329 330
-445 62 -48 61 -47 95 -75 63 -52 224 -115 293 -115 19 0 77 -12 128 -26 302
-82 658 -96 887 -35 168 45 425 166 465 218 6 9 12 14 12 10 0 -3 12 5 28 19
15 14 34 32 43 40 9 8 20 14 26 14 5 0 40 31 77 70 37 38 71 70 74 70 11 1 73
86 100 138 33 63 62 104 85 121 10 7 16 20 13 28 -3 8 -1 11 4 8 12 -8 33 43
24 57 -4 6 -3 8 3 5 14 -9 27 24 67 166 43 154 64 252 75 347 5 48 9 61 10 35
0 -22 -6 -80 -14 -130 -16 -99 -13 -126 5 -43 37 173 35 388 -6 561 -21 89
-28 82 -9 -9 8 -38 17 -103 19 -144 3 -41 3 -61 0 -45 -2 17 -9 64 -15 105
-17 126 -94 394 -110 385 -5 -3 -6 1 -3 9 7 20 -14 58 -28 50 -7 -4 -8 -3 -4
4 9 15 -41 113 -57 109 -6 -1 -11 4 -10 11 2 6 -1 12 -5 12 -5 0 -21 23 -36
50 -15 28 -32 48 -37 45 -5 -3 -6 1 -3 9 8 21 -153 185 -254 258 -47 34 -79
64 -76 70 4 6 2 8 -3 5 -6 -4 -19 1 -30 11 -10 9 -12 13 -3 7 10 -6 8 -2 -4
13 -20 23 -42 31 -30 10 4 -8 3 -10 -2 -5 -5 5 -9 14 -9 20 0 28 -267 137
-470 193 -82 22 -401 28 -545 10z m525 -35 c243 -60 422 -149 605 -301 302
-249 489 -550 556 -897 26 -131 24 -366 -5 -502 -47 -225 -102 -354 -233 -551
-123 -186 -277 -330 -490 -458 -136 -81 -233 -123 -355 -155 -77 -19 -113 -22
-293 -22 -233 0 -339 17 -495 80 -109 44 -127 54 -211 112 -295 203 -439 409
-516 733 -30 126 -32 415 -5 525 33 129 38 145 48 145 5 0 28 -16 49 -37 l40
-36 0 -106 c0 -179 21 -409 46 -511 47 -186 138 -337 292 -481 73 -68 106 -91
207 -140 66 -32 154 -70 196 -83 93 -31 241 -56 331 -56 104 0 294 28 377 56
158 53 333 165 471 303 118 118 172 188 244 317 110 195 158 382 159 609 1
158 -9 222 -60 380 -69 215 -165 367 -339 535 -111 108 -197 172 -317 237
-324 176 -646 205 -1027 93 -140 -41 -236 -89 -410 -204 -157 -103 -211 -143
-302 -223 -32 -29 -63 -53 -68 -53 -32 0 18 115 94 216 76 102 291 275 426
344 76 38 264 106 347 125 174 39 493 42 638 6z m-205 -321 c146 -19 263 -51
370 -101 131 -62 282 -162 370 -245 128 -122 264 -346 309 -513 47 -172 52
-428 11 -551 -33 -100 -114 -264 -177 -358 -31 -47 -97 -127 -147 -177 -73
-74 -112 -104 -196 -151 -235 -130 -336 -159 -550 -158 -139 0 -164 3 -244 28
-237 72 -377 160 -512 320 -86 101 -138 188 -168 278 -28 84 -51 196 -43 204
10 10 89 -33 125 -67 18 -17 50 -66 71 -109 139 -280 337 -429 643 -481 157
-27 292 -22 388 14 245 92 402 222 532 441 105 175 159 311 165 411 6 112 -23
255 -82 391 -111 261 -276 426 -559 559 -141 67 -187 81 -316 101 -341 52
-762 -99 -1031 -370 -147 -148 -218 -255 -284 -425 -60 -157 -67 -214 -60
-496 6 -235 5 -251 -13 -273 l-18 -24 -15 24 c-46 72 -111 296 -124 423 -8 90
7 208 41 315 35 111 135 313 195 392 158 208 423 414 659 511 70 29 236 71
360 90 50 8 227 6 300 -3z m157 -368 c157 -53 208 -85 314 -191 76 -76 104
-112 135 -175 51 -105 58 -181 20 -252 -26 -50 -64 -100 -70 -93 -2 2 -13 42
-25 89 -50 202 -147 335 -299 413 -155 81 -289 97 -453 56 -125 -32 -184 -64
-264 -144 -80 -80 -131 -171 -167 -302 -13 -46 -26 -83 -29 -83 -4 0 -21 36
-39 81 -28 69 -32 88 -27 142 6 81 37 165 89 245 50 76 113 129 219 182 111
56 186 70 359 67 133 -3 153 -6 237 -35z m-1001 -194 c-31 -155 -27 -269 15
-413 83 -280 308 -493 582 -552 88 -19 292 -12 382 12 84 22 229 89 278 127
104 80 182 157 236 232 67 93 78 112 101 179 16 44 19 47 33 33 8 -9 29 -52
47 -96 28 -73 29 -85 19 -123 -21 -78 -145 -223 -274 -320 -222 -165 -528
-252 -769 -218 -103 15 -274 72 -350 118 -78 47 -193 140 -243 197 -45 51
-124 178 -176 282 -56 112 -70 172 -65 287 l4 100 71 66 c39 36 79 78 88 94
23 36 29 34 21 -5z m1504 -1080 c0 -30 -60 -136 -94 -166 -54 -47 -114 -74
-278 -126 l-148 -47 -162 0 c-90 0 -185 5 -213 11 -107 23 -265 121 -265 163
0 12 50 7 159 -14 160 -32 306 -24 516 29 179 45 313 90 395 133 60 30 90 36
90 17z"/>
</g>
</svg>
